<?xml version="1.0" encoding="utf-8"?>
<!-- Generator: Adobe Illustrator 19.0.0, SVG Export Plug-In . SVG Version: 6.00 Build 0)  -->
<svg version="1.1" id="Layer_1" xmlns="http://www.w3.org/2000/svg" xmlns:xlink="http://www.w3.org/1999/xlink" x="0px" y="0px"
	 viewBox="0 0 512 512" style="enable-background:new 0 0 512 512;" xml:space="preserve">
<g id="XMLID_1_">
	<path id="XMLID_3_" d="M8.7,268.6l79.4-79.4c3.1-3.1,7.9-5.5,13.4-5.5c4.7,0,9.4,1.6,13.4,5.5c3.1,3.1,5.5,7.9,5.5,13.4
		c0,5.5-2.4,9.4-5.5,13.4l0,0l-55.1,53.5h347.6c17.3,0,34.6-7.1,47.2-19.7c12.6-12.6,19.7-29.1,19.7-47.2v-63.7
		c0-10.2,8.7-18.9,18.9-18.9c10.2,0,18.9,8.7,18.9,18.9v63.7c0,27.5-11,53.5-30.7,73.1s-45.6,30.7-73.1,30.7H59l52.7,53.5
		c3.1,3.1,5.5,7.9,5.5,13.4c0,4.7-1.6,9.4-5.5,13.4l0,0c-3.9,3.1-7.9,5.5-13.4,5.5s-9.4-1.6-13.4-5.5L8.7,310.3
		C3.1,304.8,0,296.9,0,289C0,281.2,3.1,274.1,8.7,268.6z"/>
</g>
</svg>
